<svg xmlns="http://www.w3.org/2000/svg" viewBox="0 0 539.52 543.29"><defs><style>.cls-1,.cls-6{fill:#ffcf5c;}.cls-1,.cls-5{stroke:#fff;}.cls-1,.cls-4,.cls-5{stroke-miterlimit:10;}.cls-1{stroke-width:0.25px;}.cls-2{fill:#3c2313;}.cls-3{fill:#fff;}.cls-4,.cls-5{fill:none;}.cls-4{stroke:#3c2313;stroke-width:7px;}</style></defs><g id="Layer_1" data-name="Layer 1"><path class="cls-1" d="M655.71,281.51c-13.68,6.17-30.41,8.74-45.29,4.65-21-5.76-33.17-23.33-38.14-31.64-158.4,36-121.68-120.24-121.68-120.24a47.41,47.41,0,0,1-20.44-11.49c-16.62-16.25-20.75-47-16-71.82-1.22,0-2.44,0-3.66,0-135.66,0-245.63,110-245.63,245.63s110,245.63,245.63,245.63,245.64-110,245.64-245.63C656.19,291.51,656,286.49,655.71,281.51Z" transform="translate(-136.27 -47.15)"/><circle class="cls-2" cx="72.97" cy="283.77" r="12.24"/><path class="cls-3" d="M252.35,245.63v-36c0-6.53,0-6.53,6.26-6.53h44.88c2.61.26,3.91,1.57,4.17,3.92l.52,23.74c.26,17.48,0,35,0,52.44,0,4.18.26,8.09.26,12a6.32,6.32,0,0,1,.27,2.09c0,1.57.26,2.87,1.82,3.65,1.57.53,2.61-.78,3.39-1.82,2.09-2.87,4.44-5.74,6.53-8.87l53.74-82.45a7.23,7.23,0,0,1,6-3.39c15.92-.26,32.1-.52,48-.52a16.5,16.5,0,0,1,3.65,0c1,0,2.61-.53,3.14,1,.26,1-1.05,1.57-1.57,2.35-2.61,5.74-5.22,8.61-7.57,12-5.74,8.35-11.74,16.44-17.48,24.53-10.43,14.87-21.13,29.74-31.57,44.87-4.17,6-8.09,12.53-12,18.79-.52.52-.78.78-.78,1.3-1.83,3.65-.52,6.79,4.17,6.52,2.61-.26,4.7,1.57,7.31,1.57,1.3,0,1.82,1.31,2.08,2.35s.27,2.87,1.05,3.13c3.91,2.09,35.48,52.18,38.09,55.83,3.13,4.7,20.87,31.57,21.14,32.36.78,3.13-42,4.17-50.36,3.65-2.87-.26-6,0-8.87,0a4.21,4.21,0,0,1-3.65-1.83,6.42,6.42,0,0,0-1.57-2.08l-35-51.66a26.47,26.47,0,0,0-3.39-4.18,3.32,3.32,0,0,0-4.7,0L328,357.3c-4.43,6.26-9.13,12.26-13.3,18.79a36,36,0,0,0-5.22,15.39c-.52,5.74,0,18,0,23.74,0,6.53-55.58,1-57.4.26C252.09,412.09,252.09,287.9,252.35,245.63Zm11.74,117.93a.25.25,0,0,0,.26-.26c0-.26-.26-.52-.26-.78-.26.26-.52.52-.52.78C263.83,363.3,263.83,363.56,264.09,363.56Zm1-124.71s.26-.52.52-.52c-.26-.26-.52-.53-.78-.53s-.78.27-.78.53C264.09,238.85,264.61,239.11,265.13,238.85Zm-.26,10.43c.26,0,.52-.26.78-.26-.26-.26-.26-.78-.52-.78s-.78,0-.78.26C264.09,249,264.35,249.28,264.87,249.28Zm0,150.81c.26.26.52.26.52,0a1.56,1.56,0,0,0-.26-1c-.26-.26-.52,0-.78.26Zm.78-51.14-.26-.26h-.26c-.52.26-.26.52,0,.52S265.65,349.21,265.65,349Zm0-102.8a.57.57,0,0,1,.53-.52c0-.26-.26-.26-.26-.52l-.53.52A.81.81,0,0,0,265.65,246.15Zm3.4-20.61a3,3,0,0,0,1.3-1.82,2.45,2.45,0,0,0-2.35,0c-.52.26-.52.78-.26,1.3S268.52,225.54,269.05,225.54Zm.26,147.68c.52,0,1-.26,1-.79a1.23,1.23,0,0,0-1.3-1.3,1,1,0,0,0-1.05,1C268,373,268.52,373.22,269.31,373.22Zm.26-9.14a.25.25,0,0,0-.26-.26c-.26-.26-.52,0-.52.26-.27.27,0,.27,0,.53Zm.78-140.63a5.18,5.18,0,0,1,2.87-.52c.52,0,1,.26,1.57.26.26,0,.52-.26.78-.52,0-1.56-2.35-2.87-3.39-3.65a2.24,2.24,0,0,0-1.83,0,1.92,1.92,0,0,0-1,2.09A10.19,10.19,0,0,0,270.35,223.45Zm1.57,79.84c1.56,0,2.34-1.3,1.82-3.13l-.78-1a3.1,3.1,0,0,0-2.61.26,2,2,0,0,0-.78,2.61A1.87,1.87,0,0,0,271.92,303.29ZM271.4,339a1.44,1.44,0,0,0,1-1.57c0-.78-1-1.3-1.83-1.3a1.43,1.43,0,0,0-1,1.56C269.57,338.52,270.61,339,271.4,339Zm-.79-60.27a3.74,3.74,0,0,0,1.57.52c.52.26.52,0,.52-.52,0-.26,0-.26-.26-.52a10.71,10.71,0,0,0-1.31-.27,1.52,1.52,0,0,0-1,.27C269.83,278.51,270.35,278.77,270.61,278.77Zm1.05-2.87a1.49,1.49,0,0,0,1.82-.52c.52-1.31-1.3-3.4-2.35-3.4h-.52C269.83,273.29,270.35,275.64,271.66,275.9Zm-.53,81.4a.91.91,0,0,0,.53-.26c-.26-.26-.53-.52-.53-.78a.69.69,0,0,0-.78.78C270.61,357,270.87,357.3,271.13,357.3Zm1.57-58.44a3.92,3.92,0,0,0,.78-1.83,1,1,0,0,0-.52-1.3,1.56,1.56,0,0,0-1,.26,11.26,11.26,0,0,1-.26,1.3A3.35,3.35,0,0,0,272.7,298.86Zm0,31.57a.81.81,0,0,0,.26-.52h-.78v.26C272.44,330.17,272.7,330.17,272.7,330.43Zm1-101.5c0-.26,0-.26-.52-.26v.52C273.48,229.46,273.74,229.19,273.74,228.93Zm1.83,130.72.52-.78a1,1,0,0,0-1.3-.53c-.26,0-.26.53-.26.79C274.79,359.65,275.05,359.91,275.57,359.65Zm1-54.79c.52,0,1.05-.52,1.31-1.31-.26-.78-.52-1.3-1.31-1.3-.78-.26-1.3.26-1.3,1A1.31,1.31,0,0,0,276.61,304.86Zm-.52-21.4c.52.26,1,0,1-.52,0-.26-.26-.52-.52-.78-.26.26-.78.26-.78.52S275.83,283.46,276.09,283.46Zm.78-4.69a.57.57,0,0,0,.53-.52c0-.27-.27-.53-.53-.79-.26.26-.52.52-.52.79S276.87,278.77,276.87,278.77ZM276.61,363c.26,0,.79,0,.79-.26s-.27-.52-.27-.78a2.62,2.62,0,0,0-.78.26C276.35,362.52,276.61,362.78,276.61,363Zm.79-16.44c0-.26.26-.52.26-1l-.79.78C277.13,346.34,277.13,346.34,277.4,346.6Zm1,25.31a1.27,1.27,0,0,0,1.83,0,9.28,9.28,0,0,0,1-2.87,2.42,2.42,0,0,0-2.61-2.87c-1,0-2.09,1.31-1.57,1.83C278.44,369.3,277.66,370.87,278.44,371.91Zm1.3-118.45c-.26,0-.52-.26-.78-.52l-.26.26C279,254,279.48,253.72,279.74,253.46Zm-.52,17.22c.52.26.78,0,.52-.52a.25.25,0,0,1-.26-.26.56.56,0,0,0-.52.52A.25.25,0,0,0,279.22,270.68Zm1.83-15.13c.78,0,1-.26,1-.79-.26-1.56-1.3-1.3-2.35-1.3C279.48,254.5,279.74,255.55,281.05,255.55Zm-.26,42c.26,0,.26,0,.26-.26l-.52-.52-.26.26Zm.78,15.92a1,1,0,0,0,.26-.78c0-.79-.52-1.05-1-.79a2,2,0,0,0-.52,1.05A1,1,0,0,0,281.57,313.47Zm-.52-27.4c.26.52.78.79,1,1.05a1,1,0,0,0,.79-.26,9.42,9.42,0,0,0,3.91-6.27c.26-.78-1-1.56-2.09-1.56s-1.56.52-1.3,1.3c.52,1.05.26,1.83-.79,2.61a6.11,6.11,0,0,0-1.82,1.83A1.14,1.14,0,0,0,281.05,286.07Zm2.09-51.92a1.62,1.62,0,0,0,1.56-1c0-.78-.78-1.83-1.56-1.83-.53,0-1.05.52-1.31,1.31A1.65,1.65,0,0,0,283.14,234.15Zm0,116.11c.78,0,1-.53,1-1.31,0-.52-.52-.78-1-.78-.79,0-1.31.26-1.31,1S282.35,350.26,283.14,350.26ZM282.88,273c.26,0,.26-.52.52-.79a2.71,2.71,0,0,1-.79-.26c-.26.26-.52.53-.52.79C282.35,273,282.61,273.29,282.88,273Zm10.95,50.61c-.52-1.56-1.82-2.87-1-4.95a3.2,3.2,0,0,0-1.31-.52,1.78,1.78,0,0,0-2.34.78l-1.83,3.65c-.52.52-1,1.31-2.09.78a2,2,0,0,0-2.34.53c-.53,1.3.52,1.82,1.56,2.34.26,0,.52.26.78.53a2.47,2.47,0,0,0,3.39-.53,2.09,2.09,0,0,1,1.05-1c.78,0,1.82.26,2.87.26S294.35,324.43,293.83,323.64Zm-10.69-27.39.78-.52c-.26,0-.52-.26-.78-.26,0-.27-.26,0-.26.26A.91.91,0,0,1,283.14,296.25Zm1.3,50.35c.52.79,1,.79,1.83.79a2,2,0,0,0,1.56-1.83,1.56,1.56,0,0,0-.26-1c-1-1.31-2.61-1.83-4.17-2.61,0,0-.52.52-.52.78A10.24,10.24,0,0,0,284.44,346.6Zm-.78,12.27a.91.91,0,0,0,.26-.53c0-.26-.26-.52-.78-.52a.81.81,0,0,1-.26.52C282.88,358.61,283.14,358.87,283.66,358.87Zm0-82.71c.52,0,.52-.26.52-.78a.26.26,0,0,1-.26-.27c-.52,0-.78.27-.52.79Zm.78,117.15a.69.69,0,0,0,.78-.79c0-.78-.26-1.3-1-1.3a.69.69,0,0,0-.78.78C283.14,392.79,283.66,393.31,284.44,393.31Zm1.31-77.75a1.28,1.28,0,0,0,.78-1.57c0-.52-.52-.78-1-.78a1.43,1.43,0,0,0-1,1.56A1.21,1.21,0,0,0,285.75,315.56Zm.26-65.75c0-.26.26-.26,0-.53l-.26-.26c-.27.26-.53.53-.27.79ZM286.53,403a4.57,4.57,0,0,0,1.56.26h1.05c1.3.26,1.82-.52,2.08-1.56a2,2,0,0,0-.26-2.09c-1-1-1.56-.52-2.61.26-.26.52-1.3.52-1.82.78-.78,0-1,.79-1,1.57C285.75,402.7,286,403,286.53,403Zm3.91-92.62c.78,0,1-.26,1-.79a1.68,1.68,0,0,0-1.56-1.56,1.24,1.24,0,0,0-1.31,1.3C288.88,310.34,289.66,310.34,290.44,310.34Zm-.78,3.91a1,1,0,0,0,1-.52.79.79,0,1,0-1.56-.26C289.14,313.73,289.14,314,289.66,314.25Zm.52-48.27c.52,0,.78-.52.78-1v-.78a1,1,0,0,0-.78.26c-.52,0-1,.52-.78,1C289.4,265.72,289.92,266,290.18,266Zm.78-2.08c.26.26.52.26,1.05.26a1.63,1.63,0,0,0,1.56-2.87c-.78-.53-1.56-1.83-3.13-1.57A26.15,26.15,0,0,1,291,263.9Zm.26,122.1a1.27,1.27,0,0,0,1.83,0,15.19,15.19,0,0,0,2.61-3.13l-.26-1.3-1-.53c-1.56.53-3.13,1.31-3.65,3.13A1.62,1.62,0,0,0,291.22,386Zm2.09-79.84a1.12,1.12,0,0,0,1-1,1.76,1.76,0,0,0-1-1.31,1.56,1.56,0,0,0-1-.26c-.52.26-.52.79-.26,1.31C292.27,305.64,292.53,306.16,293.31,306.16Zm1.31,92.89c.26,0,.78-.26.78-.52.26-.53-.26-1-.78-1-.27,0-.79.26-.79.52C293.57,398.53,294.09,399.05,294.62,399.05Zm-.27-105.15.53-.52c0-.52-.26-.52-.53-.52s-.52.26-.26.26C294.09,293.38,294.35,293.64,294.35,293.9Zm.27,6c.26,0,.52-.26.26-.52h-.53C294.35,299.64,294.62,299.64,294.62,299.9Zm1.3,12.26c1,.26,2.09-.78,3.13,0,.52.26,1,1,1.57.26s-.53-3.39-1.31-3.65a17.26,17.26,0,0,0-3.65-.26,2.07,2.07,0,0,0-1.31,2.09C294.62,311.38,294.88,312.16,295.92,312.16ZM295.66,332a.25.25,0,0,0,.26-.26c0-.52-.26-.78-.52-.52a.25.25,0,0,0-.26.26C295.14,332,295.4,332.25,295.66,332Zm1.3-7.56c.53,0,.79-.52.79-1.05-.26-.26-.52-.78-.79-.78-.52,0-.78.26-1,.78A1,1,0,0,0,297,324.43Zm.79,72.53a.69.69,0,0,0,.78-.78c0-.52-.26-1.05-.78-1.05a1,1,0,0,0-1.05,1.05C296.7,396.7,297.23,397,297.75,397ZM303,320.51a6.72,6.72,0,0,0,1.57-1.3c0-.26,0-1-.26-1.31a1,1,0,0,0-1.31-.52,21.2,21.2,0,0,1-3.65,2.35A3.45,3.45,0,0,0,303,320.51Zm.79,14.09c.52.52,1.3.26,1.82.52V333.3l-1.3-.79a1.13,1.13,0,0,0-1,1.05C303.23,333.82,303.49,334.6,303.75,334.6Zm4.43,4.44,3.13-2.87c.27,0,.27-.52.27-.79a2,2,0,0,0-1.05-.52c-1.56.79-3.39,0-5,.26,0,1.05-.52,1.83,0,2.87A2,2,0,0,0,308.18,339Zm8.09,1.3h.26c0-.52-.26-.78-.52-.52C316,340.08,316,340.34,316.27,340.34ZM318.1,326a1.42,1.42,0,0,0,2.09-1,1.44,1.44,0,0,0-1.05-1.57,1.76,1.76,0,0,0-1.83,1.05A1.27,1.27,0,0,0,318.1,326Zm16.44,6.52c.26,0,.26,0,.26-.26s-.26-.26-.53-.52c0,.26-.26.26-.26.52S334.27,332.78,334.54,332.51Zm5.21-10.95A.91.91,0,0,1,340,321a.9.9,0,0,1-.52-.27.5.5,0,0,0,0,.79Zm0-8.61.26-.26v-.53c-.26-.26-.52-.26-.52.26C339.49,312.69,339.49,312.69,339.75,313Zm3.66-4.44a12.3,12.3,0,0,0,4.43,1c.52.27,1.05-.52,1.05-1.3,0-1.3-1.31-2.87-2.35-2.61a12.66,12.66,0,0,0-3.39,1.31C342.62,307,342.88,308.51,343.41,308.51Zm1.56,11c.26-.26.78-.26.78-.52a3.47,3.47,0,0,0-2.08-2.61c-.52,0-.79.52-.79,1C342.88,318.69,343.93,319,345,319.47Zm3.39,27.92c1.05,0,1.05-.79,1.31-1.31a1.65,1.65,0,0,0-1.57-1.3,1.43,1.43,0,0,0-1,1.56C347.06,347.13,347.58,347.39,348.36,347.39Zm-.26-10.7.52-.52c0-.26-.26-.52-.52-.79,0,.27-.26.53-.26.79A.91.91,0,0,0,348.1,336.69Zm5.74-9.13c1.31-.26,3.13-2.09,3.13-3.13v-.52A6.78,6.78,0,0,0,352.8,321a1.56,1.56,0,0,0-1,.26c-1.05.78-1.57,3.65-.79,4.69A3,3,0,0,0,353.84,327.56Zm-1.56,8.09a2.82,2.82,0,0,0,2.87,1.82l2.87-.78c.52-.52,1-1.31.52-1.83-1.83-1-2.09-2.87-2.61-4.69a1.17,1.17,0,0,0-1-.79c-.27,0-.79.53-1.05,1.05l-.78,1.82-.52-.78c-.52-.26-1.05-.26-1.31.26a1,1,0,0,0-.52,1.31Zm4.43,5.21c.52,0,.52-.26.52-.78l-.26-.26c-.52,0-.78.26-.52.52C356.45,340.6,356.45,340.6,356.71,340.86Zm.79,9.4a.56.56,0,0,0,.52-.53c0-.26,0-.26-.26-.52a.57.57,0,0,0-.53.52C357.23,350,357.5,350,357.5,350.26Zm4.69,10.43c1.05-.52,1.05-1.3.78-2.35l-.78-1c-.52.26-1,.26-1.3.52-.79.52-1.31,1.31-.79,2.09A1.76,1.76,0,0,0,362.19,360.69Zm-1.3,5v-.78a.81.81,0,0,0-.52.26C360.37,365.39,360.37,365.65,360.89,365.65Zm.26-26.61a1.26,1.26,0,0,0,1.56-.79l.79-1.3c-.26-.52-.26-1-.53-1a1.74,1.74,0,0,0-2.08.78A1.47,1.47,0,0,0,361.15,339Zm2.09-10.18,1.56,1.31c0-1.05,0-1.83-.78-2.35-.52-.26-1.31-.52-1.57-.26C361.67,328.34,362.71,328.6,363.24,328.86ZM362.71,343c0,.52-.26,1.05,0,1.57.26.26.79.78,1.05.78.78.26,1.3,0,1.82-.78a2.31,2.31,0,0,0-.26-1.83,9.85,9.85,0,0,0-2.87.26Zm1.31,22.7.26-.26c0-.26,0-.26-.52-.26C363.5,365.39,363.5,365.65,364,365.65Zm1.82-23.74-.26-.26c-.52.26-.26.78-.26,1Zm.79,29.48c.26,0,.26,0,.52-.26,0-1.57-.26-1.83-.78-1.83-.79,0-1.05.26-1.05.79C365.32,370.87,365.58,371.39,366.63,371.39Zm-.26-125.5c0,.26.26-.26.52-.52,0-.26-.26-.52-.26-.78-.26.26-.79.26-.79.52C365.32,245.37,365.58,245.89,366.37,245.89Zm1,83c.26,0,.52-.26.78-.52l-.78-.52-.78.52C366.89,328.6,367.15,328.86,367.41,328.86Zm1,18.27.26-.26c0-.53-.26-.53-.52-.53a.91.91,0,0,0-.52.26C367.67,347.13,367.93,347.39,368.45,347.13Zm-.26-14.88a5,5,0,0,0,2.87,1.83v.26c.79-2.61.26-4.17-1.56-4.17a2.27,2.27,0,0,0-1.57.78C367.67,331.21,367.93,331.73,368.19,332.25Zm4.18,5.74c1,.26,1.3.79,1.3,1.83,0,2.35,1.83,3.39,3.39,4.7,0,.26.79,0,1.31-.26.26-.26.52-.79.26-.79-1.83-2.61-2.35-6.26-4.7-8.61a2.85,2.85,0,0,0-2.87-.52,1.88,1.88,0,0,1-.78,1.57c-.78.52-.78,1.3,0,1.56A4.91,4.91,0,0,0,372.37,338ZM370,238.85c.26-.26.78-.26.78-.52.26-.26.26-.79,0-.79-.52-.26-1,0-1,.53A2.62,2.62,0,0,1,370,238.85Zm2.87,139.58c0,.27.26,0,.26-.26.26-.26,0-.52-.52-.52a.25.25,0,0,0-.26.26C372.37,378.17,372.37,378.43,372.89,378.43Zm1,6c0-.27.26-.27.26-.53a.56.56,0,0,0-.52-.52l-.26.52C373.67,383.91,373.67,384.17,373.93,384.44Zm2.87,4.17.26-.26c0-.26-.26-.52-.52-.78a.56.56,0,0,1-.52.52C376.28,388.35,376.54,388.61,376.8,388.61Zm3.39,4.7a1.12,1.12,0,0,0,1.05-1.05c0-.52-.52-.78-1.05-.78-.52-.26-1.3.52-1,1Zm-.26-42.53c.26,0,.26,0,.26-.52-.26-.26-.52-.26-.52.26A.25.25,0,0,0,379.93,350.78Zm.26,6h1.57q-.39-.78-.78-.78a.65.65,0,0,0-1.05.26ZM382,369.56a1.53,1.53,0,0,0,1.83-.26c1.3-1,1-2.08,0-2.87-1.05-.52-1.83-.78-2.61.53C380.72,367.74,381.24,368.78,382,369.56Zm-.26-125.75a1.16,1.16,0,0,0,1.3,0c2.87-1.05,3.14-1.57,1.57-5-1.83.52-2.61,2.09-3.13,3.65C381.24,243,381,243.54,381.76,243.81Zm2.09-19.57a5.66,5.66,0,0,0,2.87-.26c0-1,0-2.35-.79-3.13a2.47,2.47,0,0,0-2.34-.53,2.07,2.07,0,0,0-1.31,2.09A2.24,2.24,0,0,0,383.85,224.24ZM388,365.39a5.13,5.13,0,0,1-.26-3.91,1.35,1.35,0,0,0-.78-1.83c-.52,0-.78.26-1.05.78-1.3,1.83-2.87,3.65-2.08,6C385.15,366.69,386.46,366.17,388,365.39Zm-3.13-146.63c.52.26,1,0,1-.52,0-.26-.52-.53-.52-.79-.26,0-.78.26-.78.53A.5.5,0,0,0,384.89,218.76Zm1.83,160.46c.26,0,.52-.26.52-.79-.26,0-.52.27-.78.53Zm.78,17.22a1.81,1.81,0,0,0,2.09-2.09s-.26-.52-.52-.52a2.5,2.5,0,0,0-2.35,1.56C386.72,395.92,387,396.18,387.5,396.44ZM387.76,225a1.55,1.55,0,0,0,1.83.26c.52-.26.52-.78.52-1.3a1.43,1.43,0,0,0-1.57-1l-1.56.79Zm1,142.2c.79.26,1.05,0,1.05-.53,0-1-1.05-1.3-1.83-1.3C387.76,366.17,387.76,367,388.8,367.22Zm0-118.2c.27.26.53,0,.53-.26v-.52c-.53-.26-.79,0-.79.26S388.54,249,388.8,249Zm7.05-18.52-1.31-2.61c-.26-.52-.78-1-1.3-.52-1.83,1-3.91,1.82-3.91,4.43A58.27,58.27,0,0,0,395.85,230.5ZM392.2,237c0-.26.26-.52.26-1-.26-.52-.79-1-1.57-.52-.26,0-.26.52-.26.78A1.1,1.1,0,0,0,392.2,237Zm-.26,148.72a1.31,1.31,0,1,0-1.31-1.3A1.23,1.23,0,0,0,391.94,385.74Zm.78-167h1.56c-.52-.26-1-.78-1.3-.78-.52-.27-.78,0-.52.52Zm.52,14.61h2.09c.78,0,1.82-.26,1.82-1.31a6.89,6.89,0,0,0-1.3-1.56c-.78.78-2.09.78-2.87,1.83Zm3.65,162.29c.52.78,1.57.26,2.35-.27.78-.78,1.3-1.82.52-2.87a7.57,7.57,0,0,0-2.61-2.34c-1-.53-1.56.78-2.34,1.3a3.36,3.36,0,0,1-1.57.26C393.76,393.83,395.59,394.61,396.89,395.66ZM394,380.78a2.75,2.75,0,0,0,1.57,2.87l3.13,1.57c1,.52,2.09,0,2.09-1.05-.27-.78-.79-1.56-.53-2.34.26-1.57-.52-2.09-1.82-2.61a4.15,4.15,0,0,1-3.13-2.35c-.26-.52-.79-.52-1.31-.26s-.52.78-.52,1.3A11.21,11.21,0,0,1,394,380.78Zm1.05-163.07c0-.26.26-.26.26-.52a.25.25,0,0,1-.26-.26l-.53.78v.53C394.81,218.24,394.81,218,395.07,217.71Zm3.65,158.9c.52,0,.78,0,.78-.52-.26,0-.52-.26-.78-.53l-.26.27C398.2,376.35,398.46,376.61,398.72,376.61Zm.52,23.74s.52-.26.52-.52c.26-.52,0-.78-.52-1-.26.26-.78.26-.78.52C398.2,399.83,398.46,400.35,399.24,400.35Zm2.09-169.85a1.23,1.23,0,0,0,1.3-1.31c0-.52-.52-.78-1-.78-.78,0-1.31.26-1.31,1.05A1,1,0,0,0,401.33,230.5Zm0,3.65c.26,0,.52-.26.78-.52s.26-.52-.26-.78c-.26,0-.78,0-.78.26C400.81,233.63,401.07,233.89,401.33,234.15Zm1,148.72c.26,0,.52-.26.78-.26,0-.52,0-1-.52-1-.26,0-.78.26-.78.52C401.59,382.61,401.85,382.87,402.37,382.87Zm2.09-156.81.52-.52a1.43,1.43,0,0,0-.78-1.3c-.52,0-1.05.26-.78,1C403.42,225.8,403.68,226.06,404.46,226.06Zm1.56-5.48v-.26a.25.25,0,0,0-.26-.26c-.52,0-.52.26-.26.52Zm2.35,169.6c0-.26.26-.53.26-.79,0-.78-.52-1-1-.78a2.62,2.62,0,0,0-.26.78C407.33,389.92,407.85,390.18,408.37,390.18Zm.79,7.3c.78.26,3.65-.52,4.17-1.3v-1.05a1.48,1.48,0,0,0-2.09-1.3,4.61,4.61,0,0,0-2.35,2.61C408.63,396.7,408.89,397.22,409.16,397.48Zm1.3,3.13.78-.52c-.26-.26-.52-.26-.52-.52l-.52.52A.91.91,0,0,0,410.46,400.61Z" transform="translate(-136.27 -47.15)"/><path class="cls-3" d="M461.59,377.13c2.09-3.91,3.39-3.65,7.57-2.09,8.35,1.57,19-1,24.78-8.61,5.48-9.13,5.74-18.78,5.74-29.22V264.68c0-8.87-.26-17.48.53-26.09.26-2.35-.26-4.44-.26-6.79a201.94,201.94,0,0,1,0-26.09c-.79-1.82.26-2.87,2.34-3.13h37.83l14.09-.26a15.7,15.7,0,0,1,1.31,6.26l1.82,106.71v43.32a82,82,0,0,1-1,11.48c-.52,2.61-1.3,5-2.09,7.56-1,2.61-1.3,5.22-2.34,7.83-9.14,20.61-30.79,32.61-52.19,36.79a96.14,96.14,0,0,1-21.13,1.82c-8.87-.52-17.74-1.82-26.09-4.95l-2.35-.79c-1.3-.78-1.82-1.82-1.3-3.13C450.37,411.83,459.24,384.17,461.59,377.13Zm19.83,20.09,1.83-2.35c.26-.78-.26-1.82-.79-1.56a5.41,5.41,0,0,1-3.65-.79c-.52-.26-1.56.79-1.3,1.31C478.55,395.39,479.33,397,481.42,397.22Zm5.48.52c.78-1.3,2.35-1.3,3.65-1.82.26,0,.26-.26.26-.53l-.26-.26c-1-1-2.87-.78-4.17-.26a1.64,1.64,0,0,0-.26,2.35C486.12,397.48,486.64,397.74,486.9,397.74Zm2.35-6.78a1.23,1.23,0,0,0,1.3-1.31,1.3,1.3,0,0,0-1.3-1.56,1.74,1.74,0,0,0-1.83,1.56A1.67,1.67,0,0,0,489.25,391Zm4.69,2.87c.53,0,.79-.52.53-1-.26-.27-.53-.27-1.05-.27,0,.27-.26.53-.26.79C493.42,393.57,493.68,393.83,493.94,393.83Zm.53,13c.78,0,1-.52.78-1,0-.26-.52-.52-.78-.52-.53,0-.79.52-.79,1Zm13-19c.26.26.52,0,.78-.26,0-.26-.26-.53-.52-.79-.26,0-.52.26-.78.26C507.25,387.31,507.25,387.83,507.51,387.83Zm1.31,15.65a5.68,5.68,0,0,0,1.3-.78,1.27,1.27,0,0,0,.26-1.83,1.72,1.72,0,0,0-1.56-.26c-.27.26-.79.52-1.05,1.05a1.28,1.28,0,0,0-.26.78C507.77,403,508.29,403,508.82,403.48Zm.78-20.09a1,1,0,0,0,.26-.78c0-.26-.52-.26-.78-.52,0,.26-.26.52-.26.78C508.82,383.39,509.34,383.65,509.6,383.39Zm1-2.87v-1c0-.26-.52-.52-.78-.52-.52.26-.52.78-.26,1.3C509.86,380.52,510.12,380.52,510.64,380.52Zm2.09,2.61a5.47,5.47,0,0,0,1.83.78l4.17-.78a2.62,2.62,0,0,0,.26-.78,1.6,1.6,0,0,0-.26-1.05,11.08,11.08,0,0,0-5-1.56,6.86,6.86,0,0,0-2.87.78A15.93,15.93,0,0,0,512.73,383.13ZM512,368.52c.52,0,.78-.26,1-.78-.26-.26-.26-.78-.52-.78-.52-.27-1.05.26-1.05.78C511.42,368,511.69,368.26,512,368.52Zm2.87-109.32c.26.78.26-1.57.26-2.09s0-.78-.79-.78c-.26,0-.26.52-.26.78Zm1-8.87a1.3,1.3,0,0,0,1.83-1.31c0-1.3.78-1.82,1-2.87.26-.78-.78-1.56-1.56-1.56-.27,0-.79,0-.79.26,0,1.3-1.3,2.09-1.82,2.87C514,248.76,514.56,249.81,515.86,250.33Zm-.52,121.06a4.5,4.5,0,0,0,3.13-.52v-.78c0-.26-.26-.79-.52-.79a2.22,2.22,0,0,0-2.87,1.31A2.62,2.62,0,0,0,515.34,371.39Zm.78-101,2.09.52c1.56.26,2.35-1.57,2.87-2.61a1.91,1.91,0,0,0-.52-2.35,1.3,1.3,0,0,0-1.83-.26c-1,1-1.83,2.35-2.87,3.39A.83.83,0,0,0,516.12,270.42Zm.52,73.58c.79-.27,1.05-.53,1.05-1.05a1.2,1.2,0,0,0-.79-1.3c-.78-.26-1.3.52-1,1.3C515.86,343.47,516.12,344,516.64,344Zm1.57,12c.26,0,.52-.26,1-.53,0-.78-.26-1.56,0-2.08s1-.79,1.57-1.05c1-.78,2.09,0,3.13-.26.26,0,.52-.52.78-.78,0,0,0-.78-.26-.78a14.84,14.84,0,0,1-3.39-2.09c-1.57-1.3-3.91,0-4.18,2.09a20.83,20.83,0,0,0-.78,3.91C515.86,355.47,516.9,356.26,518.21,356ZM516.9,253.46c.27,0,.53-.26.79-.26.52,0,0-.78-.26-.78s-.53.26-1,.26C516.12,252.68,516.64,253.46,516.9,253.46Zm1.83,124.71v-.26a.25.25,0,0,0-.26-.26q-.78.39,0,.78Zm.52-144.54c.52,0,.79-.78.26-.78h-.26c-.52,0-.52.26-.52.52S519,233.63,519.25,233.63Zm2.09,56.88c0-.26,0-.78-.26-.78h-.52c-.52.26-.52.52-.26.78S521.08,290.51,521.34,290.51Zm2.35-38.62v1.05a.91.91,0,0,0,.26.52c.26,0,.26,0,.26-.26a.91.91,0,0,1-.26-.52c0-.26-.26-1.05-.26-.79,0-1-.52-1.82.78-1.3l1.57.78c2.87,1.57,1.56-3.65-1.31-3.65-.52,0-1.3-.26-2.09-.26s-1.3.52-1.82,1.56a2.51,2.51,0,0,0,0,2.35C521.6,252.15,523.69,252.94,523.69,251.89ZM521.34,261h.26a2.13,2.13,0,0,0,2.35-2.09,1.44,1.44,0,0,0-1-1.57c-1-.52-2.35.26-2.35,2.35C520.56,260.24,520.56,261,521.34,261Zm.26,112.45.52-.78c-.26-.53-.52-.79-1-.53-.26,0-.26.53-.26.79S521.34,373.48,521.6,373.48Zm.26-98.1c.26-.27.78-.79.78-1.31a1.35,1.35,0,0,0-.52-1,.79.79,0,0,0-1,0,1.16,1.16,0,0,0,0,1.3C521.34,274.85,521.6,275.64,521.86,275.38Zm.52-55.32c.53,0,.79-.52.79-1a1.14,1.14,0,0,0-.26-.78c-.79,0-1.83.26-1.83.52A1.23,1.23,0,0,0,522.38,220.06Zm.79,60.27c1.82,1.05,2.87.79,3.91-1,.52-.78,1.56-.26,2.35-.78a1.44,1.44,0,0,0,1-1.57,1.65,1.65,0,0,0-1.3-1.56,4.34,4.34,0,0,0-1.83-.27c-1.83,0-4.17-.78-5.48.53-.26.26-.26.26-.26.52C521.6,278.25,521.6,279.29,523.17,280.33Zm1.3,81.41c.26-.26.78-.26.78-.53.26-1,.26-2.08-.78-2.6a.93.93,0,0,0-.78-.27c-.26.27-.78.53-.52.79A3.23,3.23,0,0,0,524.47,361.74Zm1.31-76.19c.78,0,1-.78,1-1.56s-.52-1.31-1.31-1.05A1.75,1.75,0,0,0,524,284,1.56,1.56,0,0,0,525.78,285.55Zm-.79,53v-.27l-.26-.26c-.52.26-.52.53-.26.79C524.73,338.78,524.73,338.78,525,338.52Zm1.57,28.17c.26,0,.52,0,.52-.26v-.26c-.26-.26-.52-.26-.78.26Zm0,6a.57.57,0,0,0,.52-.53c0-.26,0-.26-.26-.52a.56.56,0,0,0-.52.52A1,1,0,0,0,526.56,372.7Zm.78-112.2a1.66,1.66,0,0,0,2.35.26.81.81,0,0,1,.26-.52c.52-.52-.52-1-1-1.56a1.27,1.27,0,0,0-1.83,0A1.28,1.28,0,0,0,527.34,260.5Zm.78,9.4c.52,0,.52-.79.26-.79h-.52c-.26,0-.52.53-.26.53S527.86,269.9,528.12,269.9Zm.79,81.4c.52-.26,1-.78.78-1.3,0-.53-.52-.53-1.05-.53-.78,0-1,.53-.78,1C527.86,351,528.38,351.3,528.91,351.3Zm0-4.7c.52,0,1-.26,1-.78a1.26,1.26,0,0,0-.78-1.56,1.21,1.21,0,0,0-1.31.78A1.42,1.42,0,0,0,528.91,346.6ZM530,267c.52,0,1.3-.26,1.3-1,0-.26-.26-.78-.52-.78a1.43,1.43,0,0,0-1.56,1C528.91,266.77,529.43,267,530,267Zm.26,104.36c.26-.26.52-.52.52-.78a1,1,0,0,0-.78.26.56.56,0,0,0-.52.52Zm.26-98.62h.26c.52,0-.52-.53-.52-.26A.25.25,0,0,0,530.47,272.77Zm.52,107a1.41,1.41,0,0,0,1-.78.91.91,0,0,1-.26-.53,1,1,0,0,0-1.31.53C530.21,379.48,530.47,379.74,531,379.74Zm-.26,5.22.52-.52c-.26,0-.52-.27-.78-.27A1,1,0,0,0,530.73,385Zm.52-42,1-.26c-.26-.26-.26-.78-.52-.78-.27-.26-.53,0-.79.26S531,342.69,531.25,343Zm1.83-53.75c.52-.26,1-.52,1-1,0-.78-.26-1.3-1-1.3-.78-.27-1.3.26-1.3,1S532.3,288.94,533.08,289.2Zm1.3-12.78a1.31,1.31,0,0,0,.79-.26c.78-.78-.52-2.61-1.57-2.61-.26,0-.78.26-.78.52C532.82,275.11,534.38,275.38,534.38,276.42Zm0,7.57c0-.53.27-1.05.27-1.57s-.27-1-.79-1-.78.52-.78,1C533.08,283.46,533.6,284,534.38,284Zm-1,72.79c0-.26.26-.26.26-.78-.26-.26-.52,0-.52.26S533.08,356.52,533.34,356.78Zm1.57,5.48c.52.26,1.56,0,1.56-.78.78-2.61,2.61-3.92,5-5l.52-.78c0-.53,0-.79-.26-1.05a14,14,0,0,0-2.87-1.3,1.6,1.6,0,0,0-1.83.78,13.24,13.24,0,0,1-3.13,5.22,2,2,0,0,0-.26,2.09A2.21,2.21,0,0,0,534.91,362.26Zm0-22.44c.52.26,1.3.26,1.3,0,.26-1.83,2.09-1.83,3.13-2.87a1.56,1.56,0,0,0,.26-1c-.26-.53-.52-1.05-1-1.05-1.57,0-4.7.26-4.7,2.35C533.86,338.25,533.86,339.3,534.91,339.82ZM537,266a5.61,5.61,0,0,1,3.13-2.08c1.57-.27,1.83-1.83.53-3.14-.53-.52-1.31-1.56-1.83-1a9.42,9.42,0,0,1-2.61,1.83,1.64,1.64,0,0,0-.78,2.08C536,264.42,536,267,537,266Zm-.52,7.31c1,1,2.61.52,3.92,1.3,1.56,1.31,2.87,1.05,3.65,0,1-1.3.26-2.35-.52-3.13l-.26-.26v.26c0,2.35-4.18-.52-6.53-.52a1,1,0,0,0-1,1A2.21,2.21,0,0,0,536.47,273.29Zm1.83-18a3.27,3.27,0,0,0,2.09-1c1-1,2.87-.26,2.87-1.82l-2.87-1L536,253.46C536,254.5,537.25,255.29,538.3,255.29Zm2.09,37.31c1,.52,2.61-.53,2.61-2.09a8.29,8.29,0,0,1,.78-5,.84.84,0,0,0-.52-1.3,4.43,4.43,0,0,0-1.31.52,2.91,2.91,0,0,0-1.83,2.35,3.65,3.65,0,0,1-2.87,2.61,1.12,1.12,0,0,0-1,1C537.25,292.07,539.08,291.81,540.39,292.6Zm-2.87-32.88a2,2,0,0,0,1.3-.26,1,1,0,0,0,.26-.78,1.38,1.38,0,0,0-1.56-1.57,1.16,1.16,0,0,0-1,.78C536.47,258.94,536.73,259.72,537.52,259.72Zm1.3,22.18a1.37,1.37,0,0,0-1-2.09c-.26,0-.79,0-.79-.26v-.26c0-1-.52,1.83-.52,2.61S538,282.94,538.82,281.9ZM538,349.47V349l-.26-.26c-.53,0-.53.26-.26.78Zm4.43-80.88c.26,0,.79-.26.79-.52a.69.69,0,0,0-.79-.78c-.52,0-1-.26-1,.52C541.43,268.33,542,268.59,542.47,268.59ZM544,345a.81.81,0,0,1-.26-.52c-.52,0-.78,0-.52.52v.26C543.78,345.56,543.78,345.3,544,345Z" transform="translate(-136.27 -47.15)"/><circle class="cls-2" cx="370.57" cy="47.61" r="23.76"/><circle class="cls-2" cx="482.65" cy="176.75" r="13.52"/><circle class="cls-2" cx="388.57" cy="130.83" r="21.96"/><path class="cls-4" d="M655.71,281.23C642,287.4,625.3,290,610.42,285.88c-21-5.76-33.17-23.33-38.14-31.64C413.88,290.24,450.6,134,450.6,134a47.41,47.41,0,0,1-20.44-11.49c-16.62-16.25-20.75-47-16-71.82-1.22,0-2.44,0-3.66,0-135.66,0-245.63,110-245.63,245.63s110,245.63,245.63,245.63,245.64-110,245.64-245.63C656.19,291.23,656,286.21,655.71,281.23Z" transform="translate(-136.27 -47.15)"/><path class="cls-5" d="M676.52,367.64" transform="translate(-136.27 -47.15)"/><path class="cls-6" d="M158.37,407.41a17.15,17.15,0,0,1-1.91,7.78,11.26,11.26,0,0,1-5.72,4.95l-1.48.6a6.41,6.41,0,0,1-2.27.44,5.31,5.31,0,0,1-2.48-.61,4.82,4.82,0,0,1-2.06-2.54,4.27,4.27,0,0,1,.19-4.13,6.36,6.36,0,0,1,4-2.61A8.76,8.76,0,0,0,149.4,410a6,6,0,0,0,1.77-1.89,5.18,5.18,0,0,0,.69-2.32,5.26,5.26,0,0,0-.43-2.46c-1.54.73-3,1.41-4.31,2s-2.87,1.29-4.6,2a6,6,0,0,1-1.28.34,4.1,4.1,0,0,1-1.59-.07,3.89,3.89,0,0,1-1.62-.82,4.69,4.69,0,0,1-1.35-1.9,4.27,4.27,0,0,1-.38-2.27,4.32,4.32,0,0,1,.66-1.77,5,5,0,0,1,1.18-1.25,5.91,5.91,0,0,1,1.18-.71q5.13-2.37,10.12-4.75t10.22-4.79a4.93,4.93,0,0,1,1.15-.28,4.2,4.2,0,0,1,1.57.07A4.79,4.79,0,0,1,164,390a4.34,4.34,0,0,1,1.34,1.84,5.2,5.2,0,0,1,.51,2.43,3.91,3.91,0,0,1-.51,1.71,3.53,3.53,0,0,1-1,1.08c-.39.27-.72.48-1,.63l-1.42.69c-.36.18-.69.33-1,.47s-.66.29-1,.46l-1.37.68q1.65.42,3,.72c.87.2,1.7.4,2.48.61s1.54.42,2.29.65,1.55.53,2.41.87a5.57,5.57,0,0,1,.74.43,3.82,3.82,0,0,1,1,.94,3.58,3.58,0,0,1,.64,1.51,3.92,3.92,0,0,1-.25,2.1,3,3,0,0,1-1,1.34,4.06,4.06,0,0,1-1.3.68,5.28,5.28,0,0,1-1.29.22,3.55,3.55,0,0,1-.88,0c-.81-.13-1.53-.27-2.18-.4a17.37,17.37,0,0,1-1.91-.53c-.62-.21-1.25-.44-1.88-.71S159.11,407.77,158.37,407.41Z" transform="translate(-136.27 -47.15)"/><path class="cls-6" d="M187.64,469.88a3.06,3.06,0,0,1-1.65.88,3.63,3.63,0,0,1-2.06-.51c-.52.54-1.07,1.09-1.67,1.66a15,15,0,0,1-1.88,1.53,5.55,5.55,0,0,1-1.1.56,3.69,3.69,0,0,1-1.55.25,4.42,4.42,0,0,1-1.8-.55,5.65,5.65,0,0,1-1.85-1.82,4.52,4.52,0,0,1-.87-2.16,4.72,4.72,0,0,1,.2-1.9,5.32,5.32,0,0,1,.74-1.47c.29-.41.54-.72.73-1s.46-.46.62-.59a5.62,5.62,0,0,0,.44-.41,6,6,0,0,0,.42-.45c.13-.16.32-.37.58-.64-.41-.47-.8-.9-1.16-1.29s-.72-.81-1.09-1.24-.75-.94-1.14-1.51-.85-1.25-1.36-2l.14-.1-2.48,1.59a2.8,2.8,0,0,1-1.13.41,4.29,4.29,0,0,1-1.43,0,3.76,3.76,0,0,1-1.5-.59,4.49,4.49,0,0,1-1.35-1.33,4.32,4.32,0,0,1-1-2.86,4.17,4.17,0,0,1,.71-2.08,8,8,0,0,1,.87-.84c.39-.34.69-.58.89-.72a55.28,55.28,0,0,1,7.53-4.61q4-2,8.26-3.72a16.34,16.34,0,0,1,2.44-.73,11.12,11.12,0,0,1,3.25-.22,9.56,9.56,0,0,1,3.49,1,8.44,8.44,0,0,1,3.18,2.92,8.92,8.92,0,0,1,1.56,3.59,9.61,9.61,0,0,1,0,3.21,10.44,10.44,0,0,1-.83,2.67c-.38.8-.69,1.43-.93,1.91-.51,1-1,1.82-1.35,2.53s-.79,1.39-1.18,2-.84,1.29-1.32,2-1,1.47-1.65,2.34a3.3,3.3,0,0,1,.59,1.33,2.82,2.82,0,0,1-.09,1.16,3.31,3.31,0,0,1-.53,1C188.14,469.34,187.89,469.62,187.64,469.88Zm-10.28-16.37,1.27,1.31,1.13,1.15c.36.37.75.75,1.15,1.14s.85.85,1.36,1.39c.49-.57,1.16-1.31,2-2.24s1.66-1.88,2.41-2.86a19.18,19.18,0,0,0,1.8-2.81,2,2,0,0,0,.17-2c-.25-.36-.82-.41-1.72-.14a22.3,22.3,0,0,0-3.08,1.23,40.07,40.07,0,0,0-3.52,1.94C179.16,452.31,178.16,453,177.36,453.51Z" transform="translate(-136.27 -47.15)"/><path class="cls-6" d="M241.09,502.88q-1.72,2.63-3.42,4.83t-3.47,4.05c-1.17,1.23-2.37,2.4-3.59,3.49s-2.51,2.16-3.87,3.17a6.9,6.9,0,0,1-4.38,1.71,6.22,6.22,0,0,1-3.74-1.82,5.1,5.1,0,0,1-1.57-3.56,17.68,17.68,0,0,1,.43-4.94,38.25,38.25,0,0,1,1.64-5.46c.7-1.85,1.38-3.55,2-5.08s1.19-2.83,1.6-3.88.53-1.64.37-1.79-.23,0-.46.14a5.71,5.71,0,0,0-.73.65l-.83.86-.75.83a41.86,41.86,0,0,0-4.08,5.25q-1.84,2.81-3.67,5.7a5.49,5.49,0,0,1-2.71,2.21c-1,.35-2.15,0-3.33-1.09A5,5,0,0,1,204.8,505a6.1,6.1,0,0,1,.48-3.2,28.32,28.32,0,0,1,3.63-5.74q2.34-2.94,4.79-5.63c.81-.89,1.62-1.71,2.45-2.48a21.86,21.86,0,0,1,2.46-2,7.12,7.12,0,0,1,1.92-1.09,7.77,7.77,0,0,1,2.32-.53,6.9,6.9,0,0,1,2.49.28,5.83,5.83,0,0,1,2.31,1.33,6.55,6.55,0,0,1,1.72,2.45,10.35,10.35,0,0,1,.7,2.77,11.24,11.24,0,0,1,0,2.66,15.37,15.37,0,0,1-.43,2.22c-.46,1.54-.94,3.1-1.42,4.69A23.3,23.3,0,0,1,226,505.6q1.68-2.58,3.25-4.76a52.65,52.65,0,0,1,3.77-4.59,6.69,6.69,0,0,1,1.07-.89,5.84,5.84,0,0,1,1.72-.83,4.82,4.82,0,0,1,2.09-.15,4,4,0,0,1,2.18,1.1l0,0a6,6,0,0,1,1.74,2.39,5.27,5.27,0,0,1,.33,2.17,4.34,4.34,0,0,1-.48,1.7Z" transform="translate(-136.27 -47.15)"/><path class="cls-6" d="M281.83,525.61A17.07,17.07,0,0,1,286,528.8a13.26,13.26,0,0,1,2.4,3.59,12,12,0,0,1,1,3.73,16.42,16.42,0,0,1-.07,3.65,15.13,15.13,0,0,1-.82,3.31,19.26,19.26,0,0,1-1.23,2.67,19.53,19.53,0,0,1-2,2.89,16.65,16.65,0,0,1-2.84,2.64,17.77,17.77,0,0,1-3.57,2.05,12.89,12.89,0,0,1-4.23,1,16.71,16.71,0,0,1-4.85-.35,19.32,19.32,0,0,1-5.4-2.13,12.14,12.14,0,0,1-4.47-4.1,13.27,13.27,0,0,1-1.9-5.1,14.88,14.88,0,0,1,.14-5.28,16.14,16.14,0,0,1,1.65-4.62,22.23,22.23,0,0,1,4.08-5.41,16.78,16.78,0,0,1,4.57-3.11,15.19,15.19,0,0,1,4.85-1.26,21.11,21.11,0,0,1,4.9.16c.33,0,.63.05.93.09a2.69,2.69,0,0,1,1,.35,2.06,2.06,0,0,1,1.07,1.66,1.43,1.43,0,0,0,.33.15Zm-13,19.81a7.11,7.11,0,0,0,5.84.67,8.4,8.4,0,0,0,4.49-4.09,11.53,11.53,0,0,0,1.05-2.53,8.46,8.46,0,0,0,.33-2.59,6.13,6.13,0,0,0-.56-2.31,3.86,3.86,0,0,0-1.6-1.68,2.05,2.05,0,0,0-1.44-.22,2.09,2.09,0,0,1-1.5-.24,1.76,1.76,0,0,1-.49-.41l-.4-.47a9.58,9.58,0,0,0-4.2,1.17,8.61,8.61,0,0,0-3.3,3.47,8.79,8.79,0,0,0-.93,2.38,6.4,6.4,0,0,0,2.71,6.85Z" transform="translate(-136.27 -47.15)"/><path class="cls-6" d="M342.12,548.17a8.39,8.39,0,0,1,3.65,2.05,9.64,9.64,0,0,1,2.14,3.31,14.6,14.6,0,0,1,.93,4.17,29.09,29.09,0,0,1,0,4.66,44.65,44.65,0,0,1-.71,4.81c-.33,1.6-.71,3.11-1.12,4.54s-.81,2.66-1.22,3.81-.78,2.1-1.12,2.87q-.24.43-.66,1.11a4.55,4.55,0,0,1-1.15,1.22,4.65,4.65,0,0,1-1.79.79,5.35,5.35,0,0,1-2.59-.22,5.74,5.74,0,0,1-2.24-1.13,4.91,4.91,0,0,1-1.21-1.51,3.83,3.83,0,0,1-.45-1.49,3.16,3.16,0,0,1,.06-1.11c0-.14.22-.71.53-1.72s.68-2.23,1.1-3.7.84-3,1.25-4.7.73-3.24,1-4.7a21,21,0,0,0,.32-3.73c0-1-.29-1.61-.78-1.75a.85.85,0,0,0-1,.23,4.82,4.82,0,0,0-.7,1c-.22.43-.43.91-.65,1.46a7.64,7.64,0,0,1-.73,1.43,2.89,2.89,0,0,1-1,1,1.75,1.75,0,0,1-1.42.1,2.14,2.14,0,0,1-1.53-1.41,8.73,8.73,0,0,1-.46-2.25c-.05-.79-.12-1.51-.19-2.18s-.32-1-.74-1.18-1,.1-1.4.7a13.58,13.58,0,0,0-1.27,2.21,21.29,21.29,0,0,0-1,2.65c-.28.9-.48,1.56-.6,2a31.27,31.27,0,0,0-1.1,5.74q-.27,2.92-.71,5.8l-.06.21a2.84,2.84,0,0,1-.57,1,3.76,3.76,0,0,1-1.08.88,4.51,4.51,0,0,1-1.53.46,4.82,4.82,0,0,1-1.89-.18,4.62,4.62,0,0,1-1.54-.76,5,5,0,0,1-1.08-1.08,3.28,3.28,0,0,1-.58-1.15,2.66,2.66,0,0,1-.08-1,18.8,18.8,0,0,1,.28-4.5,51,51,0,0,1,1.42-6.27,53.43,53.43,0,0,1,2.19-6.07,25.43,25.43,0,0,1,3-5.32,12.4,12.4,0,0,1,3.79-3.44,5.68,5.68,0,0,1,4.49-.45,6,6,0,0,1,3.3,2.26,6.33,6.33,0,0,1,1.32,3.21,9.36,9.36,0,0,1,1.28-1.18,8.11,8.11,0,0,1,1.75-1A7.27,7.27,0,0,1,340,548,5.09,5.09,0,0,1,342.12,548.17Z" transform="translate(-136.27 -47.15)"/><path class="cls-6" d="M485.92,546.58a3.73,3.73,0,0,1,2.57.2,3.29,3.29,0,0,1,1.73,2.38,2.84,2.84,0,0,1,0,1.84,3.31,3.31,0,0,1-.93,1.22,7,7,0,0,1-1.38.87l-1.38.69a38.42,38.42,0,0,1,2.5,4.61,26.25,26.25,0,0,1,1.52,4.07c.19.73.42,1.65.68,2.74a21.85,21.85,0,0,1,.55,3.51,19.4,19.4,0,0,1-.09,3.87,10.52,10.52,0,0,1-1.22,3.8,10.34,10.34,0,0,1-2.83,3.24,13.51,13.51,0,0,1-4.93,2.24,14.62,14.62,0,0,1-5.29.51,11.49,11.49,0,0,1-4.11-1.21,10.05,10.05,0,0,1-3-2.34,14.69,14.69,0,0,1-2-2.93,15.06,15.06,0,0,1-1.19-2.95,9.9,9.9,0,0,1-.42-2.36,3.22,3.22,0,0,1,.95-2.52,3.9,3.9,0,0,1,2.6-1.21,4.16,4.16,0,0,1,2.44.48A3.75,3.75,0,0,1,474,568.7a5.54,5.54,0,0,1,.59,1.59c.09.52.17.88.23,1.09a5.88,5.88,0,0,0,.63,1.55,4.51,4.51,0,0,0,1.07,1.3A4.18,4.18,0,0,0,478,575a3.28,3.28,0,0,0,1.76,0,3.46,3.46,0,0,0,2.17-1.64,8.19,8.19,0,0,0,1-2.82,13.19,13.19,0,0,0,.17-3.14,14.68,14.68,0,0,0-.37-2.62c-.32-1.2-.58-2.2-.79-3s-.43-1.56-.64-2.22-.43-1.26-.67-1.82-.54-1.16-.9-1.82l-.88.29-1.25.44-1.32.46c-.43.15-.83.27-1.18.36a3.68,3.68,0,0,1-1.94,0,3.35,3.35,0,0,1-2.14-1.71,5,5,0,0,1-.38-.94,3.44,3.44,0,0,1,.31-2.39,5,5,0,0,1,3-2.17c.76-.28,1.68-.58,2.76-.92l3.32-1c1.13-.36,2.24-.69,3.3-1S485.22,546.76,485.92,546.58Z" transform="translate(-136.27 -47.15)"/><path class="cls-6" d="M549.64,541.07a3.09,3.09,0,0,1,.65,1.75,3.64,3.64,0,0,1-.78,2c.46.58.94,1.2,1.42,1.87a16,16,0,0,1,1.27,2.07,5.47,5.47,0,0,1,.41,1.16,3.45,3.45,0,0,1,0,1.57,4.2,4.2,0,0,1-.78,1.71,5.52,5.52,0,0,1-2,1.6,4.64,4.64,0,0,1-2.26.57,4.48,4.48,0,0,1-1.86-.46,5.22,5.22,0,0,1-1.36-.92c-.36-.34-.64-.63-.84-.85a6.79,6.79,0,0,1-.5-.69c-.11-.17-.23-.34-.35-.5s-.25-.31-.39-.47-.33-.37-.56-.66l-1.43,1c-.44.3-.9.61-1.38.91a17.13,17.13,0,0,1-1.64.93c-.62.32-1.36.67-2.22,1.07l-.07-.14,1.23,2.66a2.63,2.63,0,0,1,.27,1.18,4.66,4.66,0,0,1-.2,1.41,4.08,4.08,0,0,1-.79,1.41,4.56,4.56,0,0,1-1.5,1.16,4.35,4.35,0,0,1-3,.57,4.2,4.2,0,0,1-2-1,8.71,8.71,0,0,1-.72-1,11.33,11.33,0,0,1-.59-1,56.41,56.41,0,0,1-3.57-8.07q-1.49-4.25-2.59-8.69a18.27,18.27,0,0,1-.39-2.52,11,11,0,0,1,.21-3.25,9.4,9.4,0,0,1,1.44-3.32,8.46,8.46,0,0,1,3.32-2.77,8.77,8.77,0,0,1,3.76-1.06,9.52,9.52,0,0,1,3.19.42,10.16,10.16,0,0,1,2.53,1.17c.74.48,1.33.87,1.77,1.18.9.64,1.68,1.2,2.33,1.68s1.27,1,1.84,1.44,1.17,1,1.78,1.56,1.32,1.21,2.1,2a3.1,3.1,0,0,1,1.39-.4,2.43,2.43,0,0,1,1.14.24,3,3,0,0,1,.92.66C549.16,540.5,549.41,540.78,549.64,541.07Zm-17.6,8,1.47-1.09,1.29-1,1.28-1c.44-.35,1-.73,1.56-1.16-.49-.56-1.14-1.33-1.94-2.31s-1.65-1.89-2.53-2.77a18.05,18.05,0,0,0-2.54-2.15c-.82-.56-1.48-.71-2-.44s-.52.76-.37,1.68a20.17,20.17,0,0,0,.81,3.22,38.2,38.2,0,0,0,1.45,3.74C531.09,547.13,531.6,548.2,532,549.08Z" transform="translate(-136.27 -47.15)"/><path class="cls-6" d="M571.24,501a20.24,20.24,0,0,1,6.77-3.86,14.79,14.79,0,0,1,6.21-.66,13,13,0,0,1,5.35,1.87,16.83,16.83,0,0,1,4.2,3.66,7.52,7.52,0,0,1,1.65,3.6,10.53,10.53,0,0,1-.15,4.1,13.27,13.27,0,0,1-1.76,4.07,14.88,14.88,0,0,1-3.22,3.58,10.6,10.6,0,0,1-1.29.92,5.37,5.37,0,0,1-1.46.64c.31.44.63.87,1,1.29s.66.85,1,1.3a12.27,12.27,0,0,0,.66,1.15,5.37,5.37,0,0,1,.68,1.65,4.13,4.13,0,0,1-.05,2,4,4,0,0,1-1.49,2.07,5,5,0,0,1-2.35,1.19,4,4,0,0,1-2-.19,4.29,4.29,0,0,1-1.51-1c-.42-.43-.77-.81-1-1.15-1-1.38-2-2.7-3-3.94l-2.91-3.73c-1-1.24-2-2.5-3.05-3.76l-3.38-4.08a5.47,5.47,0,0,1-.89.41,3.54,3.54,0,0,1-1.23.23,3.25,3.25,0,0,1-1.36-.28,3.58,3.58,0,0,1-1.33-1.06c-.89-1.09-.82-2.48.21-4.15A26.65,26.65,0,0,1,571.24,501Zm14,11a7.25,7.25,0,0,0,1-1.34,4.7,4.7,0,0,0,.57-1.52,3.84,3.84,0,0,0-.1-1.67,4.87,4.87,0,0,0-1-1.82,5.45,5.45,0,0,0-2.06-1.65,4.76,4.76,0,0,0-2.2-.41,5.36,5.36,0,0,0-2.24.68,11.38,11.38,0,0,0-2.16,1.51l3.47,4.23q1.66,2,3.31,4.14a3.74,3.74,0,0,1,.68-1.3C584.81,512.53,585.06,512.24,585.26,512Z" transform="translate(-136.27 -47.15)"/><path class="cls-6" d="M637.48,461.35a3.13,3.13,0,0,1,1.31,1.32,3.69,3.69,0,0,1,.12,2.12c.65.34,1.34.72,2.06,1.12a15.06,15.06,0,0,1,2,1.36,5.69,5.69,0,0,1,.86.89,3.71,3.71,0,0,1,.68,1.41,4.3,4.3,0,0,1,0,1.89,5.52,5.52,0,0,1-1.2,2.29,4.49,4.49,0,0,1-1.82,1.46,4.56,4.56,0,0,1-1.88.35,5.6,5.6,0,0,1-1.62-.27c-.47-.17-.84-.31-1.11-.43s-.58-.31-.75-.42l-.52-.31-.55-.26c-.19-.08-.45-.21-.78-.38-.33.53-.63,1-.9,1.49s-.57.92-.88,1.4a18.54,18.54,0,0,1-1.11,1.53c-.43.54-.95,1.17-1.57,1.89l-.13-.1,2.23,1.91a2.83,2.83,0,0,1,.73,1,4.73,4.73,0,0,1,.4,1.37,3.92,3.92,0,0,1-.13,1.61,4.69,4.69,0,0,1-.88,1.68,4.34,4.34,0,0,1-2.47,1.74,4.22,4.22,0,0,1-2.2-.07,8,8,0,0,1-1-.6,11.42,11.42,0,0,1-1-.64,54.86,54.86,0,0,1-6.58-5.87q-3.12-3.24-6-6.84a16.9,16.9,0,0,1-1.4-2.12,11,11,0,0,1-1.15-3.05,9.33,9.33,0,0,1-.07-3.62,8.47,8.47,0,0,1,1.88-3.89,8.86,8.86,0,0,1,3-2.53,9.72,9.72,0,0,1,3.07-.94,10.45,10.45,0,0,1,2.8,0l2.09.34,2.82.56c.79.17,1.55.35,2.27.55s1.48.43,2.27.69l2.72.9a3.2,3.2,0,0,1,1.1-.94,2.54,2.54,0,0,1,1.13-.25,3.28,3.28,0,0,1,1.12.22C636.81,461,637.15,461.18,637.48,461.35Zm-12.71,14.57.89-1.59.78-1.41c.24-.46.5-.94.75-1.43s.57-1.07.94-1.7c-.68-.31-1.59-.74-2.73-1.3s-2.28-1-3.44-1.48a18.5,18.5,0,0,0-3.2-.9c-1-.17-1.65,0-2,.43s-.15.9.36,1.68a20.12,20.12,0,0,0,2.07,2.59,38.32,38.32,0,0,0,2.87,2.81C623.1,474.55,624,475.32,624.77,475.92Z" transform="translate(-136.27 -47.15)"/><path class="cls-6" d="M653.78,400.89q3,.9,5.6,1.9a51,51,0,0,1,4.87,2.15q2.28,1.15,4.38,2.43c1.4.86,2.78,1.79,4.15,2.81a6.88,6.88,0,0,1,2.89,3.7A6.2,6.2,0,0,1,675,418a5.06,5.06,0,0,1-3,2.53,17.78,17.78,0,0,1-4.85,1,38.71,38.71,0,0,1-5.7,0c-2-.14-3.8-.31-5.46-.5s-3-.33-4.17-.42-1.73,0-1.82.16,0,.23.26.4a7.67,7.67,0,0,0,.83.52l1.07.54,1,.48a41.85,41.85,0,0,0,6.2,2.4q3.23,1,6.52,1.88a5.43,5.43,0,0,1,2.88,2c.64.89.61,2.06-.08,3.51a5,5,0,0,1-2.54,2.6,6,6,0,0,1-3.21.47,28.74,28.74,0,0,1-6.54-1.83q-3.48-1.41-6.77-3c-1.08-.51-2.11-1.06-3.08-1.63A21.68,21.68,0,0,1,644,427.3a7.13,7.13,0,0,1-1.6-1.52,8.28,8.28,0,0,1-1.17-2.08,7.11,7.11,0,0,1-.45-2.46,6,6,0,0,1,.61-2.59,6.78,6.78,0,0,1,1.85-2.36,10.71,10.71,0,0,1,2.46-1.46,11.19,11.19,0,0,1,2.55-.75,17,17,0,0,1,2.25-.22h4.91a23,23,0,0,1,5.35.72q-3-.87-5.49-1.75a53.54,53.54,0,0,1-5.47-2.29,6.88,6.88,0,0,1-1.17-.77,6.27,6.27,0,0,1-1.29-1.41,5,5,0,0,1-.74-2A4,4,0,0,1,647,404l0-.05a6.06,6.06,0,0,1,1.79-2.35,5.17,5.17,0,0,1,2-.93,4.21,4.21,0,0,1,1.76,0Z" transform="translate(-136.27 -47.15)"/><circle class="cls-2" cx="226.69" cy="103.8" r="22.68"/><circle class="cls-2" cx="273.58" cy="430.38" r="24.21"/><circle class="cls-2" cx="466.45" cy="315.81" r="16.2"/><circle class="cls-2" cx="313.99" cy="267.57" r="16.2"/><polygon class="cls-2" points="274.28 504.81 280.53 517.48 294.51 519.51 284.4 529.37 286.79 543.29 274.28 536.72 261.78 543.29 264.17 529.37 254.06 519.51 268.03 517.48 274.28 504.81"/></g></svg>