<svg id="Layer_1" data-name="Layer 1" xmlns="http://www.w3.org/2000/svg" viewBox="0 0 535.68 535.68"><defs><style>.cls-1{fill:#fff;}.cls-2{fill:#7367f0;}</style></defs><circle class="cls-1" cx="267.84" cy="267.84" r="267.84"/><path class="cls-2" d="M432.76,438.48q-14.79,3.39-29.42,6.32t-29.73,5.39q-18.48-28-36.5-55.29t-37.42-54.37l-33,32L263.65,441q-7.09-.31-14-.46t-13.7-.16q-6.48,0-12.63.31c-4.11.2-8.22.62-12.32,1.23q-3.71-28.33-6.93-56.52t-5.7-56.83q-2.47-28.65-3.85-57.14t-2.62-57.14q23.1.62,45.74.77t45.74.77l-1.85,71.46q16.64-17.24,31.42-35.11t30.5-36.35q14.79-.93,29.88-2t29.88-2.31L402,234.26l-65.3,68.08q23.4,34.8,47.28,68.38T432.76,438.48Z" transform="translate(-128.16 -46.52)"/><path class="cls-2" d="M596.75,333.75q0,7.39-.61,17.87T594,373.18a191.84,191.84,0,0,1-4.16,21.26,65.77,65.77,0,0,1-6.62,16.94,53.92,53.92,0,0,1-16.79,18.33,75.87,75.87,0,0,1-21.56,9.85,122.65,122.65,0,0,1-24.18,4.16q-12.63.93-24.95.92-10.47,0-18.33-.61a115.39,115.39,0,0,1-15.09-2.16,86.78,86.78,0,0,1-14.79-4.62q-7.54-3.08-16.78-7.7-1.25-14.48-1.39-28.8t-.77-29.11q9.54,1.55,17.25,3.08t15.09,2.78q7.39,1.23,15.1,2t17.55.77a137.07,137.07,0,0,0,13.71-.77,23,23,0,0,0,12.48-4.78q3.07-2.46,4.92-8a59.69,59.69,0,0,0,2.62-12q.76-6.46.93-12.63t.15-9.86a436,436,0,0,0-2.46-46.2q-2.48-23.1-6.16-45.9-1.54-8.93-2.78-17.86A95.57,95.57,0,0,0,513,205q3.39.31,6.93.31h7.55q15.39,0,30.49-.77t30.5-2.93q3.38,28.65,4.77,56.52t2.93,56.53c.2,3.28.35,6.47.46,9.55S596.75,330.47,596.75,333.75Z" transform="translate(-128.16 -46.52)"/></svg>